# xmcd CD database file
#
# Track frame offsets:
#	150
#	17721
#	33347
#	45349
#	57756
#	72118
#	85515
#	99871
#	112572
#	122440
#	133736
#	149588
#	163586
#	174742
#	188632
#
# Disc length: 2934 seconds
#
# Revision: 0
# Processed by: cddbd v1.5.2PL0 Copyright (c) Steve Scherf et al.
# Submitted via: CDex 1.51
#
DISCID=b40b740f
DTITLE=Chucho Valdes - Jazzcuba Volume 1
DYEAR=2007
DGENRE=Jazz
TTITLE0=Bebada
TTITLE1=Descarga Pa' Gozar
TTITLE2=Tanganika
TTITLE3=Mambo Influenciado
TTITLE4=Atomo
TTITLE5=Indestructible
TTITLE6=Guasabenado voy
TTITLE7=Varadeo Cha
TTITLE8=Congo
TTITLE9=Niño
TTITLE10=Descarga de Kike
TTITLE11=Pilín Pilón
TTITLE12=Por la libre
TTITLE13=Descarga de Monte Adentro
TTITLE14=Rabo de Nube
EXTD=YEAR: 2007
EXTT0=
EXTT1=
EXTT2=
EXTT3=
EXTT4=
EXTT5=
EXTT6=
EXTT7=
EXTT8=
EXTT9=
EXTT10=
EXTT11=
EXTT12=
EXTT13=
EXTT14=
PLAYORDER=
